HIERARCHY
ROOT Spine
{
    OFFSET 0.0 0.0 -0.0
    CHANNELS 6 Xposition Yposition Zposition Zrotation Xrotation Yrotation
    JOINT ShoulderCenter
    {
        OFFSET 0.0 31.202802658081055 0.0
        CHANNELS 3 Zrotation Xrotation Yrotation
        JOINT LeftShoulder
        {
            OFFSET 17.027725219726562 0.0 0.0
            CHANNELS 3 Zrotation Xrotation Yrotation
            JOINT LeftElbow
            {
                OFFSET 30.42404556274414 0.0 0.0
                CHANNELS 3 Zrotation Xrotation Yrotation
                JOINT LeftHand
                {
                    OFFSET 28.11672019958496 0.0 0.0
                    CHANNELS 3 Zrotation Xrotation Yrotation
                    End Site
                    {
                        OFFSET 11.246688842773438 0.0 0.0
                    }
                }
            }
        }
        JOINT RightShoulder
        {
            OFFSET -17.027725219726562 0.0 0.0
            CHANNELS 3 Zrotation Xrotation Yrotation
            JOINT RightElbow
            {
                OFFSET -30.42404556274414 0.0 0.0
                CHANNELS 3 Zrotation Xrotation Yrotation
                JOINT RightHand
                {
                    OFFSET -28.11672019958496 0.0 0.0
                    CHANNELS 3 Zrotation Xrotation Yrotation
                    End Site
                    {
                        OFFSET -11.246688842773438 0.0 0.0
                    }
                }
            }
        }
        End Site
        {
            OFFSET 0.0 12.481120109558105 0.0
        }
    }
    JOINT LeftHip
    {
        OFFSET 15.172779147176099 -15.172779147176099 0.0
        CHANNELS 3 Zrotation Xrotation Yrotation
        JOINT LeftKnee
        {
            OFFSET 0.0 -34.997127532958984 0.0
            CHANNELS 3 Zrotation Xrotation Yrotation
            JOINT LeftFoot
            {
                OFFSET 0.0 -47.207916259765625 0.0
                CHANNELS 3 Zrotation Xrotation Yrotation
                End Site
                {
                    OFFSET 0.0 0.0 18.883167266845703
                }
            }
        }
    }
    JOINT RightHip
    {
        OFFSET -15.172779147176099 -15.172779147176099 0.0
        CHANNELS 3 Zrotation Xrotation Yrotation
        JOINT RightKnee
        {
            OFFSET 0.0 -34.997127532958984 0.0
            CHANNELS 3 Zrotation Xrotation Yrotation
            JOINT RightFoot
            {
                OFFSET 0.0 -47.207916259765625 0.0
                CHANNELS 3 Zrotation Xrotation Yrotation
                End Site
                {
                    OFFSET 0.0 0.0 18.883167266845703
                }
            }
        }
    }
}
MOTION
Frames: 12
Frame Time: 0.03333333333333333
24.100000381469727 -72.0999984741211 142.90000915527344 11.346783264490618 14.170519949251924 -78.96807344053339 1.0083065385846433e-07 -2.8977822455632373e-07 10.772864542542655 92.45074105596525 12.182122741832762 -171.98185640317698 -1.7786421688924192e-07 1.0091175436362584e-07 34.88015542991795 1.5902773407317584e-15 4.4139062980501586e-32 3.1805546814635168e-15 -141.46938405401406 -2.135062921302662 140.08171711505105 1.6768603264258764e-07 -1.1169949612734513e-06 -47.48616990319833 -1.1927080055488192e-15 2.782985346280578e-15 1.5902773407317588e-15 158.8592094238678 -58.05993375101859 -132.76226966012192 168.00877332825246 56.163142608570986 -171.62142554202822 3.1805546814635176e-15 6.361109362927035e-15 -1.7655625192200634e-31 102.68248056586236 -74.50400518458815 66.83091402860488 -140.57757489711193 -8.878662479278496 -175.45754463918416 -3.1805546814635168e-15 -5.9635400277440935e-15 -1.6552148617688094e-31
23.299999237060547 -71.5999984741211 143.1999969482422 13.57678447691655 15.521606243233283 -79.87608282381031 4.1385773703217574e-07 -1.6460537382013443e-06 11.655102094081032 87.51259959638291 20.567888741396054 -163.0972529774853 -5.257314362581737e-06 -3.3144226819724685e-07 26.25703126925099 7.951386703658792e-15 0.0 0.0 -141.0481626834684 -2.005349597112174 138.83459262210783 -4.562656637538183e-08 2.296053498227307e-06 -46.49933586582968 3.578124016646457e-15 2.782985346280577e-15 1.5902773407317584e-15 161.7349176178478 -58.30542287989025 -132.30209578164275 176.25052131691925 57.44291420424916 -179.54571707206253 3.1805546814635168e-15 -6.3611093629270335e-15 3.1805546814635168e-15 81.62591938212223 -72.10789438372335 48.73275415437627 -137.7330555488793 -7.644971220024238 -176.04562380439614 0.0 6.361109362927033e-15 0.0
22.200000762939453 -70.5999984741211 143.5 15.28866453553782 16.895396021795605 -79.81033491812774 -9.494314138102634e-07 9.102234417749191e-07 11.672359284165921 81.92984085539803 29.643774117488075 -157.19823710826367 -2.234265962562986e-06 -1.5200301162360757e-06 20.85697210407874 -4.373262687012336e-15 0.0 0.0 -140.47200835081844 -2.399216830431056 137.93052578702643 2.1809901123779318e-06 -1.7368235068869699e-06 -45.78170924921777 3.1805546814635176e-15 -3.975693351829396e-16 1.5902773407317588e-15 161.19621541870305 -62.409452398647375 -134.57041813233752 -178.87280519160012 57.551228067768335 172.90054888723802 -3.180554681463516e-15 6.361109362927033e-15 -6.361109362927033e-15 -48.783717851576455 48.9597595539272 87.0998374658113 -139.5249575659321 23.934457942264903 168.08061911514446 4.770832022195275e-15 -1.3241718894150476e-31 -3.1805546814635168e-15
21.19999885559082 -70.5999984741211 143.6999969482422 16.791415227464974 18.221468147938108 -79.80271280598508 3.5161288848023825e-07 1.582451638324266e-06 12.036293548022455 83.6185079609388 28.56902349920014 -158.1399691847163 -1.69962752869678e-07 -1.8638841029022335e-08 21.66816414690683 7.951386703658794e-16 0.0 0.0 -140.6155362601233 -3.2004183829742283 137.1639891037817 3.2162449720393628e-06 3.497135292079171e-06 -45.225190845702755 -7.951386703658794e-16 -3.975693351829397e-15 1.5902773407317588e-15 163.8122463469431 -59.755566956259145 -132.77039662370782 -179.33827176401206 57.15603262259553 175.637157980069 0.0 0.0 -3.1805546814635168e-15 -47.59247336669014 48.62033269381973 86.88783013552509 -139.11192060783665 23.771771972865352 168.3439589773872 -9.54166404439055e-15 -2.648343778830095e-31 3.1805546814635168e-15
20.200000762939453 -70.5999984741211 143.89999389648438 17.944208171885034 19.39736889733409 -79.35619837211416 -1.806493032078054e-06 6.521030209852661e-07 12.455121961150383 84.81192764897534 27.32960978219808 -159.5611815250009 -4.343801364526787e-06 -8.48631584060963e-06 23.647652700030857 4.770832022195275e-15 1.3241718894150476e-31 3.1805546814635168e-15 -139.7516115473084 -3.6599541421306707 137.12094556182714 -2.1737637216994403e-06 9.879309829954332e-07 -44.99403096122951 -3.9756933518293955e-16 -5.517382872562698e-33 1.5902773407317582e-15 165.8693381451325 -55.64971202244436 -131.1599495820249 178.66564491026168 55.949079090748214 -178.7940354362234 3.1805546814635168e-15 -3.1805546814635168e-15 3.1805546814635168e-15 -42.990658175088065 48.207890645704374 83.61666055057366 -139.35046431814712 24.258590098699713 168.85824670187765 0.0 0.0 0.0
19.100000381469727 -70.70000457763672 144.0 18.744647441374575 20.78014704762339 -78.63291894815923 -1.3614169150417357e-06 1.3899843863784786e-06 13.014382452350604 84.76210431975684 27.58042882846112 -159.63269703607983 1.647261682595836e-06 1.5478489850801811e-07 24.741513854372496 -4.770832022195275e-15 1.3241718894150476e-31 -3.1805546814635168e-15 -138.30486645069436 -3.8692259211458664 137.22587968061114 2.4626807891816003e-06 -4.6333712327031374e-07 -44.737440242161554 -4.373262687012335e-15 2.385416011097637e-15 9.103681739728452e-32 166.9817694170893 -50.886159203568965 -130.65930652932065 176.94369026738477 54.1209764155688 -173.33556907532082 -6.3611093629270335e-15 3.1805546814635168e-15 3.1805546814635168e-15 -36.339871136187845 47.68851671277783 78.62562106474661 -139.9648978012261 25.12773720045397 169.4180963105879 -3.1805546814635168e-15 3.1805546814635168e-15 8.827812596100317e-32
18.299999237060547 -71.20000457763672 144.1999969482422 19.813790177455893 22.54130502907456 -78.40132131017424 1.0248379907725305e-06 -7.6133459022108e-07 14.346579643090347 84.87608566564784 27.520706372327336 -158.8505331682616 -6.1891537721084376e-06 -6.048963908892376e-07 25.127123042770805 -3.975693351829396e-15 3.1805546814635168e-15 3.1805546814635168e-15 -136.95167617313925 -3.5369037327082467 137.4256986030949 6.213071015031854e-07 -1.9413368193526497e-06 -44.49779841692802 -3.975693351829396e-16 0.0 0.0 170.76426352955383 -43.92313588493053 -128.8176147077684 176.36113740848953 53.71352817230741 -166.77628383015195 -6.3611093629270335e-15 -3.1805546814635168e-15 -3.1805546814635168e-15 111.04441507122306 -77.22156811522699 69.31222425523956 -138.37309861298465 -7.070328522817768 -176.07085834252084 0.0 0.0 -6.3611093629270335e-15
17.299999237060547 -71.10000610351562 144.1999969482422 20.979745493556976 24.026941683746802 -77.94365078142161 -1.4858527392526464e-06 1.7715897637161288e-06 15.252217867232048 85.91727811412147 26.1121679472952 -158.86905660555757 -1.7465351795509735e-07 -1.8231728841478698e-06 25.8070800283713 -2.385416011097637e-15 -1.3241718894150476e-31 6.361109362927033e-15 -135.65786811409794 -2.8940974939137245 137.20756579897142 -1.6509316760167125e-07 1.0314607798336597e-06 -43.7803862911224 -2.782985346280577e-15 -7.951386703658792e-16 -1.9310840053969444e-32 173.1318168914378 -42.3465070172745 -127.97436571210076 175.81648033704784 53.6292391164137 -164.64085266665896 0.0 0.0 3.1805546814635168e-15 128.30968681810194 -77.29199392483217 84.16402610831618 -138.8477102208561 -5.94056713084304 -176.60679228962076 -6.361109362927032e-15 -6.361109362927032e-15 -3.531125038440127e-31
16.30000114440918 -71.0 144.1999969482422 22.291751191615404 25.40957710793789 -77.54892676578217 1.8618009274570761e-06 1.017277676472676e-06 15.799150099164315 86.10925144691568 25.840218141035894 -158.5237576831215 -1.6104085086823469e-06 -5.908930699337487e-06 26.372411544356186 -3.975693351829396e-16 3.1805546814635168e-15 1.1034765745125397e-32 -135.29866962323246 -2.7932516795466262 136.52301179990263 6.655937765123451e-07 -2.491043737197198e-06 -43.07916088681362 -2.782985346280577e-15 0.0 0.0 175.68689261047152 -41.674609417176455 -126.61382425708791 175.12763392994975 53.766360597634 -163.04893016608327 0.0 -3.1805546814635168e-15 0.0 142.55064841698257 -76.53065771260098 96.71285736071366 -139.79082669869027 -4.427147649875386 -177.47600788280783 0.0 0.0 -3.1805546814635168e-15
15.299999237060547 -70.80000305175781 144.1999969482422 23.62937439005526 26.61194649999779 -77.30592991743863 1.1941096800063488e-06 9.212817851093804e-07 16.22341884269931 86.62647178339117 25.26961409401821 -158.15612966686086 -1.0543200828105697e-06 1.1616794717888719e-06 26.477092513486042 -4.373262687012335e-15 3.1805546814635168e-15 -6.3611093629270335e-15 -134.66539324776375 -2.241560806221792 135.5315881201986 -1.6058250659778973e-06 -2.7827374716053543e-06 -41.961795812811815 3.578124016646456e-15 0.0 0.0 178.06669586546042 -40.888427911512515 -125.64134892633221 174.7146236615349 53.727339071040504 -161.51515361370818 -1.7655625192200634e-31 6.361109362927033e-15 3.1805546814635164e-15 156.34633153209762 -75.10229505476845 108.74770132365767 -140.85327923780451 -3.105850003791914 -178.23806075308786 -6.361109362927033e-15 -6.361109362927033e-15 3.180554681463516e-15
14.399999618530273 -70.5 144.10000610351562 24.979089660490274 28.314907045797305 -76.92777923114988 2.0613035710397847e-06 -4.416462608831999e-06 15.953975590768136 87.26898991302781 25.21529267207907 -157.30809161807557 -1.1243447686120511e-06 -4.468732562641164e-06 26.303305777719583 1.987846675914698e-15 3.1805546814635168e-15 6.3611093629270335e-15 -133.56758933013236 -1.9826543026863133 133.9358954411176 4.525546753408871e-06 2.5967352048336357e-06 -40.54438419198945 -5.9635400277440935e-15 8.276074308844047e-32 -1.5902773407317584e-15 -179.24995087498652 -40.0618529221613 -124.49841921398205 173.65207098774343 53.56624366278592 -159.48445451171605 1.7655625192200634e-31 -6.361109362927033e-15 3.1805546814635164e-15 169.8302618053226 -73.0044621939993 119.74046261615581 -141.5073090419376 -1.791421814678355 -178.98176191943074 1.7655625192200634e-31 -6.3611093629270335e-15 3.1805546814635168e-15
13.500000953674316 -70.20000457763672 144.0 26.091536665379984 29.806548557611123 -76.9376027711709 -5.751179925951134e-07 -9.661205559678623e-07 16.202481370021626 89.21608714036651 23.65339759808686 -157.49712070332666 3.2896316138436385e-06 -1.7523811251382559e-06 26.564263722774587 5.565970692561154e-15 3.1805546814635168e-15 3.1805546814635168e-15 -131.42786443157812 -1.2908515290773614 133.13013225535795 -5.694213249530382e-07 -2.297958814561324e-06 -39.798514338501555 7.553817368475854e-15 7.951386703658792e-16 -1.5902773407317588e-15 -177.32283950075117 -39.55084511886131 -124.05899375755205 172.12653708888968 53.20339297458151 -157.36359754995044 3.1805546814635168e-15 3.1805546814635168e-15 -3.1805546814635168e-15 178.01999626328072 -71.00403942051582 126.09959421000075 -141.80201126860513 -0.14441767330131433 -179.9156520432938 0.0 0.0 0.0
